<?xml version="1.0" encoding="UTF-8"?>
<svg width="154px" height="44px" viewBox="0 0 154 44" version="1.1" xmlns="http://www.w3.org/2000/svg" xmlns:xlink="http://www.w3.org/1999/xlink">
    <!-- Generator: Sketch 46.2 (44496) - http://www.bohemiancoding.com/sketch -->
    <title>logo</title>
    <desc>Created with Sketch.</desc>
    <defs></defs>
    <g id="home" stroke="none" stroke-width="1" fill="none" fill-rule="evenodd">
        <g id="Desktop-HD" transform="translate(-75.000000, -41.000000)" fill="#E0E2E5">
            <g id="header">
                <g id="logo" transform="translate(75.000000, 41.000000)">
                    <path d="M17.0471204,0.382165605 L20.3874346,0.382165605 C21.0529411,0.382165605 21.3856894,0.687895032 21.3856894,1.29936306 L21.3856894,16.3566879 C21.3856894,18.7006487 20.4962276,20.5605027 18.7172775,21.9363057 C16.9383273,23.3121088 14.7434686,24 12.1326353,24 C9.52180195,24 7.3717362,23.2866313 5.68237347,21.8598726 C3.99301075,20.4331139 3.14834206,18.5987373 3.14834206,16.3566879 L3.14834206,2.17834395 L0.883071553,2.17834395 C0.627107504,2.17834395 0.415940332,2.09554223 0.2495637,1.92993631 C0.0831870681,1.76433038 0,1.5541414 0,1.29936306 C0,1.04458471 0.0831870681,0.828026369 0.2495637,0.649681529 C0.415940332,0.471336688 0.627107504,0.382165605 0.883071553,0.382165605 L4.22338569,0.382165605 C4.47934974,0.382165605 4.70971393,0.471336688 4.91448517,0.649681529 C5.1192564,0.828026369 5.22164049,1.04458471 5.22164049,1.29936306 L5.22164049,16.3566879 C5.22164049,18.0891806 5.87433902,19.4968099 7.17975567,20.5796178 C8.48517232,21.6624258 10.1745097,22.2038217 12.2478185,22.2038217 C14.3211273,22.2038217 16.0168637,21.6624258 17.3350785,20.5796178 C18.6532934,19.4968099 19.3123909,18.0891806 19.3123909,16.3566879 L19.3123909,2.17834395 L17.0471204,2.17834395 C16.7911564,2.17834395 16.5799892,2.09554223 16.4136126,1.92993631 C16.2472359,1.76433038 16.1640489,1.5541414 16.1640489,1.29936306 C16.1640489,1.04458471 16.2472359,0.828026369 16.4136126,0.649681529 C16.5799892,0.471336688 16.7911564,0.382165605 17.0471204,0.382165605 Z M28.3350785,23.1210191 L28.3350785,2.17834395 L26.069808,2.17834395 C25.813844,2.17834395 25.6026768,2.09554223 25.4363002,1.92993631 C25.2699235,1.76433038 25.1867365,1.5541414 25.1867365,1.29936306 C25.1867365,1.04458471 25.2699235,0.828026369 25.4363002,0.649681529 C25.6026768,0.471336688 25.813844,0.382165605 26.069808,0.382165605 L38.1256545,0.382165605 C43.7056707,0.382165605 46.495637,2.88532529 46.495637,7.89171975 C46.495637,12.8981142 43.7056707,15.4012739 38.1256545,15.4012739 L30.408377,15.4012739 L30.408377,23.1210191 C30.408377,23.3757975 30.3059929,23.5859864 30.1012216,23.7515924 C29.8964504,23.9171983 29.6532882,24 29.3717277,24 C29.0901673,24 28.8470051,23.9171983 28.6422339,23.7515924 C28.4374626,23.5859864 28.3350785,23.3757975 28.3350785,23.1210191 Z M30.408377,2.17834395 L30.408377,13.6433121 L38.1256545,13.6433121 C42.3234649,13.6433121 44.4223386,11.7325032 44.4223386,7.91082803 C44.4223386,4.08915287 42.3234649,2.17834395 38.1256545,2.17834395 L30.408377,2.17834395 Z M57.7835951,23.1210191 L57.7835951,2.17834395 L50.1815009,2.17834395 L50.1815009,4.43312102 C50.1815009,4.68789936 50.0791168,4.89808834 49.8743455,5.06369427 C49.6695743,5.22930019 49.4264121,5.31210191 49.1448517,5.31210191 C48.8632912,5.31210191 48.620129,5.22930019 48.4153578,5.06369427 C48.2105865,4.89808834 48.1082024,4.68789936 48.1082024,4.43312102 L48.1082024,1.29936306 C48.1082024,1.04458471 48.2105865,0.828026369 48.4153578,0.649681529 C48.620129,0.471336688 48.8504932,0.382165605 49.1064572,0.382165605 L68.495637,0.382165605 C68.7771975,0.382165605 69.0203597,0.471336688 69.2251309,0.649681529 C69.4299021,0.828026369 69.5322862,1.04458471 69.5322862,1.29936306 L69.5322862,4.43312102 C69.5322862,4.68789936 69.4299021,4.89808834 69.2251309,5.06369427 C69.0203597,5.22930019 68.7771975,5.31210191 68.495637,5.31210191 C68.2140765,5.31210191 67.9709143,5.22930019 67.7661431,5.06369427 C67.5613719,4.89808834 67.4589878,4.68789936 67.4589878,4.43312102 L67.4589878,2.17834395 L59.8568935,2.17834395 L59.8568935,23.1210191 C59.8568935,23.3757975 59.7545095,23.5859864 59.5497382,23.7515924 C59.344967,23.9171983 59.1018048,24 58.8202443,24 C58.5386839,24 58.2955217,23.9171983 58.0907504,23.7515924 C57.8859792,23.5859864 57.7835951,23.3757975 57.7835951,23.1210191 Z M71.452007,12 C71.452007,8.53501452 72.5334389,5.66880115 74.6963351,3.40127389 C76.8592313,1.13374662 79.6427986,-3.77145826e-15 83.0471204,0 C86.4514423,-3.77145826e-15 89.2350095,1.13374662 91.3979058,3.40127389 C93.560802,5.66880115 94.6422339,8.54138389 94.6422339,12.0191083 C94.6422339,15.4968327 93.560802,18.3630461 91.3979058,20.6178344 C89.2350095,22.8726227 86.4514423,24 83.0471204,24 C79.6427986,24 76.8592313,22.8662534 74.6963351,20.5987261 C72.5334389,18.3311989 71.452007,15.4649855 71.452007,12 Z M73.5253054,12 C73.5253054,14.9554288 74.4083681,17.3948948 76.1745201,19.3184713 C77.940672,21.2420478 80.2315159,22.2038217 83.0471204,22.2038217 C85.862725,22.2038217 88.1535688,21.2420478 89.9197208,19.3184713 C91.6858727,17.3948948 92.5689354,14.9554288 92.5689354,12 C92.5689354,9.04457121 91.6858727,6.60510516 89.9197208,4.68152866 C88.1535688,2.75795217 85.862725,1.79617834 83.0471204,1.79617834 C80.2315159,1.79617834 77.940672,2.75795217 76.1745201,4.68152866 C74.4083681,6.60510516 73.5253054,9.04457121 73.5253054,12 Z M107.101222,0.535031847 C107.216405,0.305731338 107.376381,0.159235987 107.581152,0.0955414013 C107.785923,0.0318468153 107.952297,-3.77145826e-15 108.080279,0 C108.515418,-3.77145826e-15 108.809772,0.178342166 108.963351,0.535031847 L112.073298,7.98726115 L115.22164,0.496815287 C115.375219,0.165603439 115.592785,-3.77145826e-15 115.874346,0 C116.155906,-3.77145826e-15 116.399068,0.0382161783 116.603839,0.114649682 C116.808611,0.191083185 116.962187,0.350317261 117.064572,0.592356688 C117.166958,0.834396115 117.166958,1.07006255 117.064572,1.29936306 L113.186736,10.3949045 L117.448517,20.7898089 L125.933682,0.496815287 C126.087261,0.165603439 126.304827,-3.77145826e-15 126.586387,0 C127.200701,-3.77145826e-15 127.597439,0.203819618 127.776614,0.611464968 C127.827807,0.713376306 127.853403,0.828024841 127.853403,0.955414013 C127.853403,1.08280318 127.827807,1.19745172 127.776614,1.29936306 L118.446771,23.3503185 C118.293193,23.7834417 117.960445,24 117.448517,24 C116.936588,24 116.60384,23.7834417 116.450262,23.3503185 L112.073298,12.955414 L107.696335,23.3503185 C107.542757,23.7834417 107.216407,24 106.717277,24 C106.218148,24 105.891798,23.7834417 105.73822,23.3503185 L96.3315881,1.22292994 C96.2803953,1.1210186 96.2547993,1.00637006 96.2547993,0.878980892 C96.2547993,0.471335541 96.4723655,0.203822293 96.9075044,0.076433121 C97.0610828,0.0254774522 97.2018609,-3.77145826e-15 97.3298429,0 C97.7649818,-3.77145826e-15 98.0593361,0.178342166 98.2129145,0.535031847 L106.774869,20.7515924 L110.998255,10.3949045 L107.082024,1.22292994 C106.979639,0.993629427 106.986038,0.764332357 107.101222,0.535031847 Z M133.958115,23.1210191 C133.958115,23.3757975 133.855731,23.5859864 133.65096,23.7515924 C133.446189,23.9171983 133.203026,24 132.921466,24 C132.639906,24 132.396743,23.9171983 132.191972,23.7515924 C131.987201,23.5859864 131.884817,23.3757975 131.884817,23.1210191 L131.884817,2.17834395 L129.773124,2.17834395 C129.491563,2.17834395 129.248401,2.08917287 129.04363,1.91082803 C128.838859,1.73248318 128.736475,1.51592484 128.736475,1.2611465 C128.736475,1.00636815 128.83246,0.796179172 129.024433,0.630573248 C129.216406,0.464967325 129.465967,0.382165605 129.773124,0.382165605 L132.767888,0.382165605 C133.177431,0.382165605 133.497381,0.509552866 133.727749,0.76433121 L148.77836,20.0254777 L148.77836,2.17834395 L146.513089,2.17834395 C146.257125,2.17834395 146.045958,2.09554223 145.879581,1.92993631 C145.713205,1.76433038 145.630017,1.5541414 145.630017,1.29936306 C145.630017,1.04458471 145.713205,0.828026369 145.879581,0.649681529 C146.045958,0.471336688 146.257125,0.382165605 146.513089,0.382165605 L153.116928,0.382165605 C153.372892,0.382165605 153.58406,0.471336688 153.750436,0.649681529 C153.916813,0.828026369 154,1.04458471 154,1.29936306 C154,1.5541414 153.916813,1.76433038 153.750436,1.92993631 C153.58406,2.09554223 153.372892,2.17834395 153.116928,2.17834395 L150.851658,2.17834395 L150.851658,23.0063694 C150.851658,23.6687931 150.51891,24 149.853403,24 C149.495053,24 149.187901,23.8216578 148.931937,23.4649682 L133.958115,4.28025478 L133.958115,23.1210191 Z" id="UPTOWN"></path>
                    <path d="M56,43.8251366 L56,36.1748634 L58.680203,36.1748634 C59.5700728,36.1748634 60.48113,36.2185792 61.0214081,36.7650273 C61.4451556,37.1912568 61.498124,37.726776 61.498124,38.1530055 C61.498124,38.5464481 61.4451556,38.8743169 61.1803134,39.1912568 C61.0214081,39.3879781 60.7565659,39.5846995 60.3963805,39.6721311 L60.3963805,39.7595628 C60.957846,39.8579235 61.296844,40.1639344 61.4239682,40.284153 C61.8265284,40.6994536 61.9430589,41.2021858 61.9430589,41.6721311 C61.9430589,42.4918033 61.5934672,42.9617486 61.3498124,43.2021858 C60.7353785,43.7923497 59.8137277,43.8251366 58.9768263,43.8251366 L56,43.8251366 Z M57.5890532,37.442623 L57.5890532,39.2131148 L58.510704,39.2131148 C58.7331715,39.2131148 59.156919,39.1912568 59.4005738,39.0601093 C59.6442286,38.9289617 59.803134,38.6885246 59.803134,38.295082 C59.803134,37.9125683 59.6442286,37.715847 59.5171044,37.6174863 C59.3158243,37.4754098 58.9132642,37.442623 58.6272346,37.442623 L57.5890532,37.442623 Z M57.5890532,40.4808743 L57.5890532,42.557377 L58.5318914,42.557377 C58.8814831,42.557377 59.3899801,42.5245902 59.6760097,42.3825137 C59.972633,42.2295082 60.1845067,41.9672131 60.1845067,41.4972678 C60.1845067,41.1038251 60.004414,40.8852459 59.9302582,40.8087432 C59.633635,40.5027322 59.1145443,40.4808743 58.5954535,40.4808743 L57.5890532,40.4808743 Z M66.964467,36.1748634 L70.0790113,43.8251366 L68.4263959,43.8251366 L67.7378062,42.0218579 L64.7503862,42.0218579 L64.0617965,43.8251366 L62.4091812,43.8251366 L65.5237254,36.1748634 L66.964467,36.1748634 Z M65.2376959,40.7103825 L67.2399029,40.7103825 L66.2335025,38.0765027 L65.2376959,40.7103825 Z M72.6214964,40.9508197 L72.6214964,43.8251366 L71.0324432,43.8251366 L71.0324432,36.1748634 L73.6808652,36.1748634 C74.5495476,36.1748634 75.4923858,36.284153 76.0644449,36.8743169 C76.3186934,37.1256831 76.6576915,37.6393443 76.6576915,38.557377 C76.6576915,39.2240437 76.4775988,39.6939891 76.2127566,40.0218579 C75.9691017,40.3278689 75.587729,40.5901639 75.1427941,40.6994536 L76.6682851,43.8251366 L74.9627014,43.8251366 L73.617303,40.9508197 L72.6214964,40.9508197 Z M72.6214964,39.6612022 L73.3630545,39.6612022 C73.8503642,39.6612022 74.4118296,39.6174863 74.7084529,39.3005464 C74.8461708,39.147541 74.9627014,38.9071038 74.9627014,38.5464481 C74.9627014,38.2513661 74.8991393,37.9453552 74.602516,37.7377049 C74.3164864,37.5300546 73.8927389,37.5081967 73.5113661,37.5081967 L72.6214964,37.5081967 L72.6214964,39.6612022 Z M78.0878393,43.8251366 L78.0878393,36.1748634 L80.7680424,36.1748634 C81.6579122,36.1748634 82.5689693,36.2185792 83.1092474,36.7650273 C83.5329949,37.1912568 83.5859634,37.726776 83.5859634,38.1530055 C83.5859634,38.5464481 83.5329949,38.8743169 83.2681527,39.1912568 C83.1092474,39.3879781 82.8444052,39.5846995 82.4842198,39.6721311 L82.4842198,39.7595628 C83.0456853,39.8579235 83.3846833,40.1639344 83.5118075,40.284153 C83.9143677,40.6994536 84.0308983,41.2021858 84.0308983,41.6721311 C84.0308983,42.4918033 83.6813066,42.9617486 83.4376517,43.2021858 C82.8232178,43.7923497 81.901567,43.8251366 81.0646656,43.8251366 L78.0878393,43.8251366 Z M79.6768925,37.442623 L79.6768925,39.2131148 L80.5985434,39.2131148 C80.8210108,39.2131148 81.2447583,39.1912568 81.4884132,39.0601093 C81.732068,38.9289617 81.8909733,38.6885246 81.8909733,38.295082 C81.8909733,37.9125683 81.732068,37.715847 81.6049437,37.6174863 C81.4036637,37.4754098 81.0011035,37.442623 80.7150739,37.442623 L79.6768925,37.442623 Z M79.6768925,40.4808743 L79.6768925,42.557377 L80.6197307,42.557377 C80.9693224,42.557377 81.4778195,42.5245902 81.763849,42.3825137 C82.0604723,42.2295082 82.2723461,41.9672131 82.2723461,41.4972678 C82.2723461,41.1038251 82.0922534,40.8852459 82.0180976,40.8087432 C81.7214743,40.5027322 81.2023836,40.4808743 80.6832929,40.4808743 L79.6768925,40.4808743 Z M90.1540499,37.5300546 L90.1540499,36.1748634 L85.3657029,36.1748634 L85.3657029,43.8251366 L90.2387994,43.8251366 L90.2387994,42.4699454 L86.9547561,42.4699454 L86.9547561,40.4590164 L89.5184286,40.4590164 L89.5184286,39.1038251 L86.9547561,39.1038251 L86.9547561,37.5300546 L90.1540499,37.5300546 Z M93.1414699,40.9508197 L93.1414699,43.8251366 L91.5524167,43.8251366 L91.5524167,36.1748634 L94.2008387,36.1748634 C95.0695211,36.1748634 96.0123593,36.284153 96.5844185,36.8743169 C96.838667,37.1256831 97.177665,37.6393443 97.177665,38.557377 C97.177665,39.2240437 96.9975723,39.6939891 96.7327301,40.0218579 C96.4890753,40.3278689 96.1077025,40.5901639 95.6627676,40.6994536 L97.1882587,43.8251366 L95.4826749,43.8251366 L94.1372765,40.9508197 L93.1414699,40.9508197 Z M93.1414699,39.6612022 L93.883028,39.6612022 C94.3703377,39.6612022 94.9318031,39.6174863 95.2284264,39.3005464 C95.3661443,39.147541 95.4826749,38.9071038 95.4826749,38.5464481 C95.4826749,38.2513661 95.4191128,37.9453552 95.1224895,37.7377049 C94.8364599,37.5300546 94.4127124,37.5081967 94.0313397,37.5081967 L93.1414699,37.5081967 L93.1414699,39.6612022 Z M103.703377,36.9071038 C103.332598,36.5901639 102.940631,36.3715847 102.569852,36.2404372 C102.093136,36.0655738 101.61642,36 101.09733,36 C100.578239,36 99.688369,36.0655738 99.042154,36.6885246 C98.7137497,37.0054645 98.3535643,37.5737705 98.3535643,38.4480874 C98.3535643,38.9289617 98.4700949,39.4098361 98.8514677,39.7923497 C99.2010594,40.1420765 99.7307438,40.3606557 100.249834,40.5355191 L101.235047,40.8743169 C101.61642,41.0054645 101.849481,41.1038251 101.997793,41.2568306 C102.093136,41.3551913 102.22026,41.5300546 102.22026,41.7923497 C102.22026,42.0437158 102.10373,42.295082 101.849481,42.4590164 C101.584639,42.6229508 101.21386,42.6448087 100.970205,42.6448087 C100.504083,42.6448087 100.239241,42.568306 99.8684617,42.3934426 C99.5294637,42.2295082 99.2540278,42.0655738 98.9891856,41.8469945 L98.1205032,42.9180328 C98.6501876,43.420765 99.1692783,43.6502732 99.349371,43.726776 C99.9532112,43.9672131 100.546458,44 101.033767,44 C101.807107,44 102.739351,43.9125683 103.385566,43.2786885 C103.71397,42.9508197 104,42.4480874 104,41.6830601 C104,41.3005464 103.936438,40.7213115 103.470316,40.2513661 C103.141911,39.9125683 102.654602,39.704918 102.156698,39.5300546 L101.340984,39.2459016 C100.821894,39.0601093 100.599426,38.9836066 100.419333,38.863388 C100.186272,38.7103825 100.048554,38.5136612 100.048554,38.2295082 C100.048554,37.9562842 100.186272,37.715847 100.355771,37.5737705 C100.567645,37.3989071 100.874862,37.3333333 101.171485,37.3333333 C101.478702,37.3333333 101.8177,37.4098361 102.082542,37.5191257 C102.326197,37.6174863 102.686383,37.8142077 102.90885,37.9672131 L103.703377,36.9071038 Z" id="BARBERS"></path>
                </g>
            </g>
        </g>
    </g>
</svg>